<svg 
 xmlns="http://www.w3.org/2000/svg"
 xmlns:xlink="http://www.w3.org/1999/xlink"
 width="21px" height="21px">
<path fill-rule="evenodd"  fill="rgb(255, 255, 255)"
 d="M17.882,12.749 C16.696,12.749 15.736,11.789 15.736,10.603 C15.736,9.416 16.696,8.457 17.882,8.457 C19.69,8.457 20.28,9.416 20.28,10.603 C20.28,11.789 19.69,12.749 17.882,12.749 ZM17.882,4.880 C16.696,4.880 15.736,3.921 15.736,2.735 C15.736,1.548 16.696,0.589 17.882,0.589 C19.69,0.589 20.28,1.548 20.28,2.735 C20.28,3.921 19.69,4.880 17.882,4.880 ZM10.14,20.617 C8.827,20.617 7.868,19.658 7.868,18.472 C7.868,17.285 8.827,16.326 10.14,16.326 C11.201,16.326 12.160,17.285 12.160,18.472 C12.160,19.658 11.201,20.617 10.14,20.617 ZM10.14,12.749 C8.827,12.749 7.868,11.789 7.868,10.603 C7.868,9.416 8.827,8.457 10.14,8.457 C11.201,8.457 12.160,9.416 12.160,10.603 C12.160,11.789 11.201,12.749 10.14,12.749 ZM10.14,4.880 C8.827,4.880 7.868,3.921 7.868,2.735 C7.868,1.548 8.827,0.589 10.14,0.589 C11.201,0.589 12.160,1.548 12.160,2.735 C12.160,3.921 11.201,4.880 10.14,4.880 ZM2.145,20.617 C0.959,20.617 0.0,19.658 0.0,18.472 C0.0,17.285 0.959,16.326 2.145,16.326 C3.332,16.326 4.291,17.285 4.291,18.472 C4.291,19.658 3.332,20.617 2.145,20.617 ZM2.145,12.749 C0.959,12.749 0.0,11.789 0.0,10.603 C0.0,9.416 0.959,8.457 2.145,8.457 C3.332,8.457 4.291,9.416 4.291,10.603 C4.291,11.789 3.332,12.749 2.145,12.749 ZM2.145,4.880 C0.959,4.880 0.0,3.921 0.0,2.735 C0.0,1.548 0.959,0.589 2.145,0.589 C3.332,0.589 4.291,1.548 4.291,2.735 C4.291,3.921 3.332,4.880 2.145,4.880 ZM17.882,16.326 C19.69,16.326 20.28,17.285 20.28,18.472 C20.28,19.658 19.69,20.617 17.882,20.617 C16.696,20.617 15.736,19.658 15.736,18.472 C15.736,17.285 16.696,16.326 17.882,16.326 Z"/>
</svg>