<svg 
 xmlns="http://www.w3.org/2000/svg"
 xmlns:xlink="http://www.w3.org/1999/xlink"
 width="22px" height="9px">
<path fill-rule="evenodd"  fill="rgb(255, 255, 255)"
 d="M0.295,5.471 L0.287,5.471 L17.244,5.471 L17.143,8.329 C17.89,8.383 17.59,8.456 17.59,8.534 C17.59,8.610 17.89,8.684 17.143,8.738 L17.316,8.911 C17.370,8.967 17.442,8.997 17.519,8.997 C17.596,8.997 17.669,8.967 17.723,8.912 L21.915,4.701 C21.970,4.647 21.999,4.573 21.999,4.496 C21.999,4.419 21.970,4.345 21.915,4.292 L17.723,0.79 C17.669,0.26 17.596,0.3 17.519,0.3 C17.442,0.3 17.370,0.26 17.316,0.79 L17.143,0.253 C17.89,0.308 17.59,0.380 17.59,0.457 C17.59,0.534 17.89,0.603 17.143,0.658 L17.256,3.522 L0.291,3.522 C0.133,3.522 0.0,3.658 0.0,3.817 L0.0,5.187 C0.0,5.346 0.137,5.471 0.295,5.471 Z"/>
</svg>