<svg 
 xmlns="http://www.w3.org/2000/svg"
 xmlns:xlink="http://www.w3.org/1999/xlink"
 width="51px" height="39px">
<path fill-rule="evenodd"  fill="rgb(163, 187, 200)"
 d="M49.727,38.647 C49.322,38.976 48.824,38.859 48.819,38.859 L0.778,29.61 C0.764,29.57 0.397,28.985 0.156,28.674 C0.82,28.362 0.0,28.7 0.89,27.826 C0.177,27.646 6.501,14.894 6.672,14.569 C6.843,14.244 7.47,14.182 7.179,14.117 L42.372,0.67 C42.372,0.67 42.943,0.119 43.338,0.118 C43.734,0.358 43.786,0.762 43.786,0.763 L50.37,37.842 C50.37,37.842 50.131,38.318 49.727,38.647 ZM43.476,35.947 L22.949,24.537 L5.426,28.187 L43.476,35.947 ZM45.742,35.109 L36.31,21.806 L25.693,23.964 L45.742,35.109 ZM2.735,26.924 L20.568,23.209 L8.47,16.227 L2.735,26.924 ZM9.709,15.55 L23.310,22.639 L35.681,20.55 L41.240,2.468 L9.709,15.55 ZM42.487,5.132 L37.584,20.653 L47.363,34.50 L42.487,5.132 Z"/>
</svg>