<svg 
 xmlns="http://www.w3.org/2000/svg"
 xmlns:xlink="http://www.w3.org/1999/xlink"
 width="19px" height="17px">
<path fill-rule="evenodd"  fill="rgb(36, 63, 77)"
 d="M18.935,3.932 L16.812,11.887 C16.743,12.146 16.508,12.327 16.240,12.327 L5.884,12.327 C5.876,12.325 5.868,12.325 5.862,12.327 C4.532,12.328 3.656,12.821 3.182,13.837 C3.82,14.51 2.868,14.178 2.645,14.178 C2.561,14.178 2.476,14.160 2.395,14.122 C2.98,13.983 1.970,13.631 2.109,13.335 C2.688,12.95 3.736,11.361 5.162,11.184 L4.107,5.793 C4.45,5.472 4.254,5.160 4.575,5.97 C4.896,5.31 5.206,5.245 5.270,5.565 L6.362,11.143 L15.785,11.143 L17.591,4.372 L4.314,4.372 C4.305,4.372 4.297,4.372 4.289,4.372 C2.161,4.372 0.321,2.788 0.6,0.679 C0.42,0.355 0.180,0.54 0.504,0.6 C0.819,0.48 1.129,0.180 1.177,0.505 C1.406,2.36 2.744,3.186 4.293,3.186 C4.298,3.186 4.305,3.186 4.310,3.186 L18.363,3.186 C18.547,3.186 18.720,3.272 18.832,3.418 C18.945,3.565 18.983,3.755 18.935,3.932 ZM5.527,12.830 C5.529,12.830 5.530,12.830 5.532,12.830 C6.83,12.830 6.602,13.44 6.993,13.433 C7.385,13.826 7.601,14.345 7.601,14.899 C7.603,15.740 7.102,16.493 6.325,16.816 C6.66,16.925 5.795,16.977 5.526,16.977 C4.989,16.977 4.462,16.767 4.64,16.371 C3.468,15.777 3.290,14.890 3.612,14.110 C3.934,13.334 4.685,12.830 5.527,12.830 ZM4.901,15.532 C5.156,15.786 5.537,15.862 5.869,15.724 C6.203,15.584 6.417,15.261 6.417,14.900 C6.417,14.663 6.324,14.441 6.156,14.272 C5.990,14.107 5.768,14.14 5.532,14.14 C5.530,14.14 5.529,14.14 5.528,14.14 C5.167,14.14 4.845,14.230 4.707,14.563 C4.569,14.896 4.645,15.278 4.901,15.532 ZM13.918,12.830 C14.464,12.790 14.998,13.48 15.386,13.434 C15.778,13.826 15.993,14.345 15.993,14.899 C15.996,15.739 15.495,16.493 14.718,16.816 C14.459,16.925 14.187,16.976 13.918,16.977 C13.381,16.977 12.854,16.767 12.456,16.371 C11.859,15.776 11.682,14.890 12.4,14.110 C12.325,13.334 13.76,12.830 13.918,12.830 ZM13.292,15.532 C13.549,15.788 13.931,15.862 14.262,15.724 C14.595,15.584 14.810,15.261 14.809,14.900 C14.809,14.663 14.716,14.441 14.549,14.272 C14.384,14.109 14.156,14.14 13.924,14.14 C13.923,14.14 13.922,14.14 13.922,14.14 C13.591,14.46 13.237,14.229 13.99,14.562 C12.961,14.896 13.37,15.278 13.292,15.532 Z"/>
</svg>