<svg 
 xmlns="http://www.w3.org/2000/svg"
 xmlns:xlink="http://www.w3.org/1999/xlink"
 width="19px" height="17px">
<path fill-rule="evenodd"  fill="rgb(36, 63, 77)"
 d="M9.912,16.244 C9.817,16.244 9.722,16.226 9.633,16.188 C9.280,16.38 0.983,12.438 0.983,5.428 C1.74,2.778 3.190,0.721 5.800,0.721 C7.544,0.721 9.66,1.639 9.912,3.31 C10.759,1.639 12.282,0.721 14.25,0.721 C16.634,0.721 18.750,2.778 18.842,5.404 C18.842,12.438 10.545,16.38 10.192,16.188 C10.103,16.226 10.8,16.244 9.912,16.244 ZM5.800,2.106 C3.954,2.106 2.457,3.575 2.392,5.452 C2.393,10.859 8.517,14.114 9.912,14.786 C11.308,14.114 17.433,10.856 17.433,5.428 C17.367,3.575 15.870,2.106 14.25,2.106 C12.180,2.106 10.682,3.575 10.617,5.452 C10.604,5.825 10.292,6.121 9.912,6.121 L9.912,6.121 C9.532,6.121 9.221,5.825 9.208,5.452 C9.143,3.575 7.646,2.106 5.800,2.106 Z"/>
</svg>