<svg 
 xmlns="http://www.w3.org/2000/svg"
 xmlns:xlink="http://www.w3.org/1999/xlink"
 width="16px" height="16px">
<path fill-rule="evenodd"  fill="rgb(36, 63, 77)"
 d="M15.320,14.610 C14.899,15.63 13.327,16.24 11.590,14.318 L9.531,11.968 C8.751,12.313 7.890,12.506 6.983,12.506 C3.514,12.506 0.704,9.705 0.704,6.249 C0.704,2.793 3.511,0.3 6.980,0.3 C10.445,0.3 13.258,2.796 13.258,6.252 C13.258,7.182 13.56,8.64 12.691,8.857 L15.27,10.893 C16.730,12.639 15.772,14.159 15.320,14.610 ZM6.980,1.305 C4.238,1.305 2.14,3.521 2.14,6.252 C2.14,8.984 4.235,11.200 6.980,11.200 C9.721,11.200 11.945,8.984 11.945,6.252 C11.945,3.521 9.721,1.305 6.980,1.305 ZM14.178,11.865 L12.17,9.985 C11.633,10.498 11.175,10.952 10.654,11.325 L12.525,13.513 C12.819,13.836 13.651,14.380 14.406,13.739 C14.615,13.563 15.39,12.670 14.178,11.865 ZM6.493,10.84 C5.682,9.923 4.937,9.535 4.350,8.954 C3.767,8.372 3.377,7.626 3.215,6.818 C3.149,6.464 3.343,6.141 3.702,6.75 C4.57,6.10 4.381,6.206 4.447,6.560 C4.544,7.141 4.803,7.626 5.227,8.49 C5.648,8.437 6.169,8.726 6.721,8.826 C7.45,8.891 7.273,9.215 7.207,9.569 C7.142,9.892 6.849,10.125 6.493,10.84 Z"/>
</svg>